<svg aria-roledescription="er" role="graphics-document document" viewBox="0 0 362.33203125 620" style="max-width: 100%;" xmlns="http://www.w3.org/2000/svg" width="100%" id="graph-div" height="100%" xmlns:xlink="http://www.w3.org/1999/xlink"><style>@import url("https://cdnjs.cloudflare.com/ajax/libs/font-awesome/6.4.0/css/all.min.css");'</style><style>#graph-div{font-family:"trebuchet ms",verdana,arial,sans-serif;font-size:16px;fill:#000000;}#graph-div .error-icon{fill:#552222;}#graph-div .error-text{fill:#552222;stroke:#552222;}#graph-div .edge-thickness-normal{stroke-width:2px;}#graph-div .edge-thickness-thick{stroke-width:3.5px;}#graph-div .edge-pattern-solid{stroke-dasharray:0;}#graph-div .edge-pattern-dashed{stroke-dasharray:3;}#graph-div .edge-pattern-dotted{stroke-dasharray:2;}#graph-div .marker{fill:#666;stroke:#666;}#graph-div .marker.cross{stroke:#666;}#graph-div svg{font-family:"trebuchet ms",verdana,arial,sans-serif;font-size:16px;}#graph-div .entityBox{fill:#eee;stroke:#999;}#graph-div .attributeBoxOdd{fill:#ffffff;stroke:#999;}#graph-div .attributeBoxEven{fill:#f2f2f2;stroke:#999;}#graph-div .relationshipLabelBox{fill:hsl(-160, 0%, 93.3333333333%);opacity:0.7;background-color:hsl(-160, 0%, 93.3333333333%);}#graph-div .relationshipLabelBox rect{opacity:0.5;}#graph-div .relationshipLine{stroke:#666;}#graph-div .entityTitleText{text-anchor:middle;font-size:18px;fill:#000000;}#graph-div :root{--mermaid-font-family:"trebuchet ms",verdana,arial,sans-serif;}</style><g></g><defs><marker orient="auto" markerHeight="18" markerWidth="18" refY="9" refX="0" id="ONLY_ONE_START"><path d="M9,0 L9,18 M15,0 L15,18" fill="none" stroke="gray"></path></marker></defs><defs><marker orient="auto" markerHeight="18" markerWidth="18" refY="9" refX="18" id="ONLY_ONE_END"><path d="M3,0 L3,18 M9,0 L9,18" fill="none" stroke="gray"></path></marker></defs><defs><marker orient="auto" markerHeight="18" markerWidth="30" refY="9" refX="0" id="ZERO_OR_ONE_START"><circle r="6" cy="9" cx="21" fill="white" stroke="gray"></circle><path d="M9,0 L9,18" fill="none" stroke="gray"></path></marker></defs><defs><marker orient="auto" markerHeight="18" markerWidth="30" refY="9" refX="30" id="ZERO_OR_ONE_END"><circle r="6" cy="9" cx="9" fill="white" stroke="gray"></circle><path d="M21,0 L21,18" fill="none" stroke="gray"></path></marker></defs><defs><marker orient="auto" markerHeight="36" markerWidth="45" refY="18" refX="18" id="ONE_OR_MORE_START"><path d="M0,18 Q 18,0 36,18 Q 18,36 0,18 M42,9 L42,27" fill="none" stroke="gray"></path></marker></defs><defs><marker orient="auto" markerHeight="36" markerWidth="45" refY="18" refX="27" id="ONE_OR_MORE_END"><path d="M3,9 L3,27 M9,18 Q27,0 45,18 Q27,36 9,18" fill="none" stroke="gray"></path></marker></defs><defs><marker orient="auto" markerHeight="36" markerWidth="57" refY="18" refX="18" id="ZERO_OR_MORE_START"><circle r="6" cy="18" cx="48" fill="white" stroke="gray"></circle><path d="M0,18 Q18,0 36,18 Q18,36 0,18" fill="none" stroke="gray"></path></marker></defs><defs><marker orient="auto" markerHeight="36" markerWidth="57" refY="18" refX="39" id="ZERO_OR_MORE_END"><circle r="6" cy="18" cx="9" fill="white" stroke="gray"></circle><path d="M21,18 Q39,0 57,18 Q39,36 21,18" fill="none" stroke="gray"></path></marker></defs><path style="stroke: gray; fill: none;" marker-start="url(#ONLY_ONE_START)" marker-end="url(#ZERO_OR_MORE_END)" d="M279.83984375,132L279.83984375,140.33333333333334C279.83984375,148.66666666666666,279.83984375,165.33333333333334,279.83984375,189.33333333333334C279.83984375,213.33333333333334,279.83984375,244.66666666666666,279.83984375,260.3333333333333L279.83984375,276" class="er relationshipLine"></path><path style="stroke: gray; fill: none;" marker-start="url(#ONLY_ONE_START)" marker-end="url(#ZERO_OR_MORE_END)" d="M70,388L70,396.3333333333333C70,404.6666666666667,70,421.3333333333333,78.24842153105347,438C86.49684306210692,454.6666666666667,102.99368612421385,471.3333333333333,111.2421076552673,479.6666666666667L119.49052918632076,488" class="er relationshipLine"></path><path style="stroke: gray; fill: none;" marker-start="url(#ONLY_ONE_START)" marker-end="url(#ZERO_OR_MORE_END)" d="M279.83984375,344L279.83984375,359.6666666666667C279.83984375,375.3333333333333,279.83984375,406.6666666666667,271.59142221894655,430.6666666666667C263.34300068789304,454.6666666666667,246.84615762578616,471.3333333333333,238.59773609473268,479.6666666666667L230.34931456367923,488" class="er relationshipLine"></path><g transform="translate(217.34765625,20 )" id="entity-USER-6e7e2962-0c6f-577d-a7fd-2ce3a0cfd2c8"><rect height="112" width="124.984375" y="0" x="0" class="er entityBox"></rect><text style="dominant-baseline: middle; text-anchor: middle; font-size: 12px;" transform="translate(62.4921875,12)" y="0" x="0" id="text-entity-USER-6e7e2962-0c6f-577d-a7fd-2ce3a0cfd2c8" class="er entityLabel">USER</text><rect height="22" width="35.7421875" y="24" x="0" class="er attributeBoxOdd"></rect><text style="dominant-baseline: middle; font-size: 10.2px;" transform="translate(5,35)" y="0" x="0" id="text-entity-USER-6e7e2962-0c6f-577d-a7fd-2ce3a0cfd2c8-attr-1-type" class="er entityLabel">int</text><rect height="22" width="89.2421875" y="24" x="35.7421875" class="er attributeBoxOdd"></rect><text style="dominant-baseline: middle; font-size: 10.2px;" transform="translate(40.7421875,35)" y="0" x="0" id="text-entity-USER-6e7e2962-0c6f-577d-a7fd-2ce3a0cfd2c8-attr-1-name" class="er entityLabel">id(PK)</text><rect height="22" width="35.7421875" y="46" x="0" class="er attributeBoxEven"></rect><text style="dominant-baseline: middle; font-size: 10.2px;" transform="translate(5,57)" y="0" x="0" id="text-entity-USER-6e7e2962-0c6f-577d-a7fd-2ce3a0cfd2c8-attr-2-type" class="er entityLabel">string</text><rect height="22" width="89.2421875" y="46" x="35.7421875" class="er attributeBoxEven"></rect><text style="dominant-baseline: middle; font-size: 10.2px;" transform="translate(40.7421875,57)" y="0" x="0" id="text-entity-USER-6e7e2962-0c6f-577d-a7fd-2ce3a0cfd2c8-attr-2-name" class="er entityLabel">name</text><rect height="22" width="35.7421875" y="68" x="0" class="er attributeBoxOdd"></rect><text style="dominant-baseline: middle; font-size: 10.2px;" transform="translate(5,79)" y="0" x="0" id="text-entity-USER-6e7e2962-0c6f-577d-a7fd-2ce3a0cfd2c8-attr-3-type" class="er entityLabel">string</text><rect height="22" width="89.2421875" y="68" x="35.7421875" class="er attributeBoxOdd"></rect><text style="dominant-baseline: middle; font-size: 10.2px;" transform="translate(40.7421875,79)" y="0" x="0" id="text-entity-USER-6e7e2962-0c6f-577d-a7fd-2ce3a0cfd2c8-attr-3-name" class="er entityLabel">email</text><rect height="22" width="35.7421875" y="90" x="0" class="er attributeBoxEven"></rect><text style="dominant-baseline: middle; font-size: 10.2px;" transform="translate(5,101)" y="0" x="0" id="text-entity-USER-6e7e2962-0c6f-577d-a7fd-2ce3a0cfd2c8-attr-4-type" class="er entityLabel">string</text><rect height="22" width="89.2421875" y="90" x="35.7421875" class="er attributeBoxEven"></rect><text style="dominant-baseline: middle; font-size: 10.2px;" transform="translate(40.7421875,101)" y="0" x="0" id="text-entity-USER-6e7e2962-0c6f-577d-a7fd-2ce3a0cfd2c8-attr-4-name" class="er entityLabel">hashed_password</text></g><g transform="translate(20,232 )" id="entity-PRODUCT-b14524a1-8e20-5805-a382-423fd1ec339f"><rect height="156" width="100" y="0" x="0" class="er entityBox"></rect><text style="dominant-baseline: middle; text-anchor: middle; font-size: 12px;" transform="translate(50,12)" y="0" x="0" id="text-entity-PRODUCT-b14524a1-8e20-5805-a382-423fd1ec339f" class="er entityLabel">PRODUCT</text><rect height="22" width="37.37890625" y="24" x="0" class="er attributeBoxOdd"></rect><text style="dominant-baseline: middle; font-size: 10.2px;" transform="translate(5,35)" y="0" x="0" id="text-entity-PRODUCT-b14524a1-8e20-5805-a382-423fd1ec339f-attr-1-type" class="er entityLabel">int</text><rect height="22" width="62.62109375" y="24" x="37.37890625" class="er attributeBoxOdd"></rect><text style="dominant-baseline: middle; font-size: 10.2px;" transform="translate(42.37890625,35)" y="0" x="0" id="text-entity-PRODUCT-b14524a1-8e20-5805-a382-423fd1ec339f-attr-1-name" class="er entityLabel">id(PK)</text><rect height="22" width="37.37890625" y="46" x="0" class="er attributeBoxEven"></rect><text style="dominant-baseline: middle; font-size: 10.2px;" transform="translate(5,57)" y="0" x="0" id="text-entity-PRODUCT-b14524a1-8e20-5805-a382-423fd1ec339f-attr-2-type" class="er entityLabel">string</text><rect height="22" width="62.62109375" y="46" x="37.37890625" class="er attributeBoxEven"></rect><text style="dominant-baseline: middle; font-size: 10.2px;" transform="translate(42.37890625,57)" y="0" x="0" id="text-entity-PRODUCT-b14524a1-8e20-5805-a382-423fd1ec339f-attr-2-name" class="er entityLabel">name</text><rect height="22" width="37.37890625" y="68" x="0" class="er attributeBoxOdd"></rect><text style="dominant-baseline: middle; font-size: 10.2px;" transform="translate(5,79)" y="0" x="0" id="text-entity-PRODUCT-b14524a1-8e20-5805-a382-423fd1ec339f-attr-3-type" class="er entityLabel">string</text><rect height="22" width="62.62109375" y="68" x="37.37890625" class="er attributeBoxOdd"></rect><text style="dominant-baseline: middle; font-size: 10.2px;" transform="translate(42.37890625,79)" y="0" x="0" id="text-entity-PRODUCT-b14524a1-8e20-5805-a382-423fd1ec339f-attr-3-name" class="er entityLabel">description</text><rect height="22" width="37.37890625" y="90" x="0" class="er attributeBoxEven"></rect><text style="dominant-baseline: middle; font-size: 10.2px;" transform="translate(5,101)" y="0" x="0" id="text-entity-PRODUCT-b14524a1-8e20-5805-a382-423fd1ec339f-attr-4-type" class="er entityLabel">float</text><rect height="22" width="62.62109375" y="90" x="37.37890625" class="er attributeBoxEven"></rect><text style="dominant-baseline: middle; font-size: 10.2px;" transform="translate(42.37890625,101)" y="0" x="0" id="text-entity-PRODUCT-b14524a1-8e20-5805-a382-423fd1ec339f-attr-4-name" class="er entityLabel">price</text><rect height="22" width="37.37890625" y="112" x="0" class="er attributeBoxOdd"></rect><text style="dominant-baseline: middle; font-size: 10.2px;" transform="translate(5,123)" y="0" x="0" id="text-entity-PRODUCT-b14524a1-8e20-5805-a382-423fd1ec339f-attr-5-type" class="er entityLabel">string</text><rect height="22" width="62.62109375" y="112" x="37.37890625" class="er attributeBoxOdd"></rect><text style="dominant-baseline: middle; font-size: 10.2px;" transform="translate(42.37890625,123)" y="0" x="0" id="text-entity-PRODUCT-b14524a1-8e20-5805-a382-423fd1ec339f-attr-5-name" class="er entityLabel">auther</text><rect height="22" width="37.37890625" y="134" x="0" class="er attributeBoxEven"></rect><text style="dominant-baseline: middle; font-size: 10.2px;" transform="translate(5,145)" y="0" x="0" id="text-entity-PRODUCT-b14524a1-8e20-5805-a382-423fd1ec339f-attr-6-type" class="er entityLabel">string</text><rect height="22" width="62.62109375" y="134" x="37.37890625" class="er attributeBoxEven"></rect><text style="dominant-baseline: middle; font-size: 10.2px;" transform="translate(42.37890625,145)" y="0" x="0" id="text-entity-PRODUCT-b14524a1-8e20-5805-a382-423fd1ec339f-attr-6-name" class="er entityLabel">image_url</text></g><g transform="translate(220,276 )" id="entity-ORDER-36941e20-eb1d-50a3-81c5-00079b43c24a"><rect height="68" width="119.6796875" y="0" x="0" class="er entityBox"></rect><text style="dominant-baseline: middle; text-anchor: middle; font-size: 12px;" transform="translate(59.83984375,12)" y="0" x="0" id="text-entity-ORDER-36941e20-eb1d-50a3-81c5-00079b43c24a" class="er entityLabel">ORDER</text><rect height="22" width="22.53125" y="24" x="0" class="er attributeBoxOdd"></rect><text style="dominant-baseline: middle; font-size: 10.2px;" transform="translate(5,35)" y="0" x="0" id="text-entity-ORDER-36941e20-eb1d-50a3-81c5-00079b43c24a-attr-1-type" class="er entityLabel">int</text><rect height="22" width="97.1484375" y="24" x="22.53125" class="er attributeBoxOdd"></rect><text style="dominant-baseline: middle; font-size: 10.2px;" transform="translate(27.53125,35)" y="0" x="0" id="text-entity-ORDER-36941e20-eb1d-50a3-81c5-00079b43c24a-attr-1-name" class="er entityLabel">id(PK)</text><rect height="22" width="22.53125" y="46" x="0" class="er attributeBoxEven"></rect><text style="dominant-baseline: middle; font-size: 10.2px;" transform="translate(5,57)" y="0" x="0" id="text-entity-ORDER-36941e20-eb1d-50a3-81c5-00079b43c24a-attr-2-type" class="er entityLabel">int</text><rect height="22" width="97.1484375" y="46" x="22.53125" class="er attributeBoxEven"></rect><text style="dominant-baseline: middle; font-size: 10.2px;" transform="translate(27.53125,57)" y="0" x="0" id="text-entity-ORDER-36941e20-eb1d-50a3-81c5-00079b43c24a-attr-2-name" class="er entityLabel">user_id(FK-USERid)</text></g><g transform="translate(96.935546875,488 )" id="entity-ORDERITEM-819d8ee4-0bcc-5d42-88f2-4789d409c288"><rect height="112" width="155.96875" y="0" x="0" class="er entityBox"></rect><text style="dominant-baseline: middle; text-anchor: middle; font-size: 12px;" transform="translate(77.984375,12)" y="0" x="0" id="text-entity-ORDERITEM-819d8ee4-0bcc-5d42-88f2-4789d409c288" class="er entityLabel">ORDERITEM</text><rect height="22" width="22.53125" y="24" x="0" class="er attributeBoxOdd"></rect><text style="dominant-baseline: middle; font-size: 10.2px;" transform="translate(5,35)" y="0" x="0" id="text-entity-ORDERITEM-819d8ee4-0bcc-5d42-88f2-4789d409c288-attr-1-type" class="er entityLabel">int</text><rect height="22" width="133.4375" y="24" x="22.53125" class="er attributeBoxOdd"></rect><text style="dominant-baseline: middle; font-size: 10.2px;" transform="translate(27.53125,35)" y="0" x="0" id="text-entity-ORDERITEM-819d8ee4-0bcc-5d42-88f2-4789d409c288-attr-1-name" class="er entityLabel">id(PK)</text><rect height="22" width="22.53125" y="46" x="0" class="er attributeBoxEven"></rect><text style="dominant-baseline: middle; font-size: 10.2px;" transform="translate(5,57)" y="0" x="0" id="text-entity-ORDERITEM-819d8ee4-0bcc-5d42-88f2-4789d409c288-attr-2-type" class="er entityLabel">int</text><rect height="22" width="133.4375" y="46" x="22.53125" class="er attributeBoxEven"></rect><text style="dominant-baseline: middle; font-size: 10.2px;" transform="translate(27.53125,57)" y="0" x="0" id="text-entity-ORDERITEM-819d8ee4-0bcc-5d42-88f2-4789d409c288-attr-2-name" class="er entityLabel">order_id(FK-ORDERid)</text><rect height="22" width="22.53125" y="68" x="0" class="er attributeBoxOdd"></rect><text style="dominant-baseline: middle; font-size: 10.2px;" transform="translate(5,79)" y="0" x="0" id="text-entity-ORDERITEM-819d8ee4-0bcc-5d42-88f2-4789d409c288-attr-3-type" class="er entityLabel">int</text><rect height="22" width="133.4375" y="68" x="22.53125" class="er attributeBoxOdd"></rect><text style="dominant-baseline: middle; font-size: 10.2px;" transform="translate(27.53125,79)" y="0" x="0" id="text-entity-ORDERITEM-819d8ee4-0bcc-5d42-88f2-4789d409c288-attr-3-name" class="er entityLabel">product_id(FK-PRODUCTid)</text><rect height="22" width="22.53125" y="90" x="0" class="er attributeBoxEven"></rect><text style="dominant-baseline: middle; font-size: 10.2px;" transform="translate(5,101)" y="0" x="0" id="text-entity-ORDERITEM-819d8ee4-0bcc-5d42-88f2-4789d409c288-attr-4-type" class="er entityLabel">int</text><rect height="22" width="133.4375" y="90" x="22.53125" class="er attributeBoxEven"></rect><text style="dominant-baseline: middle; font-size: 10.2px;" transform="translate(27.53125,101)" y="0" x="0" id="text-entity-ORDERITEM-819d8ee4-0bcc-5d42-88f2-4789d409c288-attr-4-name" class="er entityLabel">quantity</text></g><rect height="14" width="33.875" y="197" x="262.90234375" class="er relationshipLabelBox"></rect><text style="text-anchor: middle; dominant-baseline: middle; font-size: 12px;" y="204" x="279.83984375" id="rel1" class="er relationshipLabel">places</text><rect height="14" width="44.109375" y="437.0724792480469" x="59.54383850097656" class="er relationshipLabelBox"></rect><text style="text-anchor: middle; dominant-baseline: middle; font-size: 12px;" y="444.0724792480469" x="81.59852600097656" id="rel2" class="er relationshipLabel">includes</text><rect height="14" width="17.71875" y="415.94732666015625" x="265.0518798828125" class="er relationshipLabelBox"></rect><text style="text-anchor: middle; dominant-baseline: middle; font-size: 12px;" y="422.94732666015625" x="273.9112548828125" id="rel3" class="er relationshipLabel">has</text></svg>